<svg xmlns="http://www.w3.org/2000/svg" viewBox="0 0 24 24" fill="white"><path d="M20.52 3.48C18.9 1.84 16.7.99 14.38.99 7.85.99 2.44 6.4 2.44 12.93c0 2.26.59 4.47 1.71 6.43L2.29 22.5l6.6-1.73c1.88 1.03 4.01 1.57 6.25 1.57 6.47 0 11.88-5.41 11.88-12.88 0-3.26-.81-6.82-2.6-9.53zM14.38 21.04c-1.95 0-3.86-.5-5.54-1.45l-.4-.23-4.1.11.27-4.04-.26-.41C4.21 13.89 3.7 12.43 3.7 12.93 3.7 7.3 8.31 2.69 13.94 2.69c1.5 0 2.98.29 4.37.85 1.39.56 2.64 1.45 3.69 2.5 1.05 1.05 1.93 2.31 2.5 3.69.56 1.39.85 2.87.85 4.37 0 5.63-4.61 10.24-10.24 10.24m5.4-7.56c-.296-.148-1.758-.867-2.03-.967-.273-.099-.471-.148-.67.15-.197.297-.767.966-.94 1.164-.173.199-.347.223-.644.075-.297-.15-1.255-.463-2.39-1.475-.883-.788-1.48-1.761-1.653-2.059-.173-.297-.018-.458.13-.606.134-.133.298-.347.446-.52.149-.174.198-.298.298-.497.099-.198.05-.371-.025-.52-.075-.149-.669-1.612-.916-2.207-.242-.579-.487-.5-.67-.51-.173-.008-.371-.01-.57-.01-.198 0-.52.074-.792.372-.272.297-1.04 1.016-1.04 2.479 0 1.462 1.065 2.875 1.213 3.074.149.198 2.096 3.2 5.076 4.487.709.306 1.262.489 1.694.625.712.227 1.36.195 1.871.118.571-.085 1.758-.719 2.006-1.413.248-.694.248-1.289.173-1.413-.074-.124-.272-.198-.57-.347z"/></svg>